<svg width="17" height="17" viewBox="0 0 17 17" fill="none" xmlns="http://www.w3.org/2000/svg">
<path d="M6.71196 1.39346V1.39391V4.31888V4.79657L7.18915 4.81836C11.1696 5.00012 13.4784 6.72203 14.7585 8.91881C16.0982 11.2178 16.2873 13.9976 16.1656 15.9528L16.1656 15.9529C16.1622 16.0082 16.1387 16.0603 16.0995 16.0995C16.0603 16.1387 16.0081 16.1622 15.9528 16.1656C15.8975 16.169 15.8428 16.1521 15.7991 16.118C15.7556 16.0841 15.7259 16.0355 15.7156 15.9814C15.7156 15.9811 15.7155 15.9808 15.7155 15.9806L15.6717 15.74L15.6715 15.7394L15.6659 15.7084C15.4976 14.7765 15.3064 13.7183 14.2719 12.8338C13.1958 11.9135 11.1735 11.165 7.22236 11.0827L6.71196 11.0721V11.5826L6.71195 14.4843L6.71196 14.4847C6.712 14.5321 6.69722 14.5784 6.6697 14.6169C6.64217 14.6555 6.60327 14.6845 6.55844 14.6999C6.51361 14.7153 6.4651 14.7162 6.41969 14.7027C6.37428 14.6891 6.33425 14.6617 6.30519 14.6243L6.30487 14.6238L1.21416 8.07866L1.21414 8.07863C1.18311 8.03874 1.16626 7.98964 1.16626 7.9391C1.16626 7.88856 1.18311 7.83946 1.21414 7.79957L1.21416 7.79954L6.30487 1.25435L6.30519 1.25393C6.33425 1.21649 6.37428 1.18908 6.41969 1.17552C6.4651 1.16196 6.51362 1.16293 6.55844 1.17831C6.60327 1.19369 6.64217 1.22269 6.6697 1.26127C6.69722 1.29985 6.712 1.34607 6.71196 1.39346Z" fill="#15B0F2" stroke="#13BEF4"/>
</svg>
