<svg width="24" height="24" viewBox="0 0 24 24" fill="none" xmlns="http://www.w3.org/2000/svg">
<path d="M3 17V7C3 6.46957 3.21071 5.96086 3.58579 5.58579C3.96086 5.21071 4.46957 5 5 5H11L13 7H19C19.5304 7 20.0391 7.21071 20.4142 7.58579C20.7893 7.96086 21 8.46957 21 9V17C21 17.5304 20.7893 18.0391 20.4142 18.4142C20.0391 18.7893 19.5304 19 19 19H5C4.46957 19 3.96086 18.7893 3.58579 18.4142C3.21071 18.0391 3 17.5304 3 17Z" stroke="#277ADC" stroke-linecap="round" stroke-linejoin="round"/>
<path d="M9 14.5419V16H10.4581L14.7587 11.6995L13.3005 10.2413L9 14.5419ZM15.8863 10.5718C15.9223 10.5359 15.9509 10.4931 15.9704 10.4461C15.99 10.3991 16 10.3486 16 10.2977C16 10.2468 15.99 10.1964 15.9704 10.1493C15.9509 10.1023 15.9223 10.0596 15.8863 10.0236L14.9764 9.11371C14.9404 9.07767 14.8977 9.04907 14.8507 9.02956C14.8036 9.01004 14.7532 9 14.7023 9C14.6514 9 14.6009 9.01004 14.5539 9.02956C14.5069 9.04907 14.4641 9.07767 14.4282 9.11371L13.7166 9.82528L15.1747 11.2834L15.8863 10.5718V10.5718Z" fill="#0F7EE4"/>
</svg>
