<svg width="65" height="65" viewBox="0 0 65 65" fill="none" xmlns="http://www.w3.org/2000/svg">
<path d="M63.0888 22.75H1.91084C1.64834 22.7502 1.38876 22.8052 1.14874 22.9115C0.90872 23.0178 0.693551 23.1731 0.517015 23.3673C0.340478 23.5616 0.206467 23.7906 0.123566 24.0397C0.0406649 24.2888 0.0107011 24.5524 0.0355942 24.8138L3.03534 56.238C3.0951 56.857 3.38316 57.4315 3.84338 57.8496C4.3036 58.2678 4.90302 58.4996 5.52484 58.5H59.4748C60.0967 58.4996 60.6961 58.2678 61.1563 57.8496C61.6165 57.4315 61.9046 56.857 61.9643 56.238L64.9641 24.8138C64.989 24.5524 64.959 24.2888 64.8761 24.0397C64.7932 23.7906 64.6592 23.5616 64.4827 23.3673C64.3061 23.1731 64.091 23.0178 63.851 22.9115C63.6109 22.8052 63.3514 22.7502 63.0888 22.75Z" fill="url(#paint0_linear)"/>
<path d="M55.8836 14.2381C57.6873 14.2381 59.4554 15.4048 59.8161 16.8348L60.4694 20.7381H5.4436L6.3926 10.9686C6.59085 9.19085 8.22885 7.7381 10.0326 7.7381H20.6114C22.4119 7.7381 24.9306 8.7651 26.2046 10.0293L28.1416 11.9403C29.4156 13.2046 31.9376 14.2381 33.7381 14.2381H55.8836Z" fill="url(#paint1_linear)"/>
<defs>
<linearGradient id="paint0_linear" x1="32.1905" y1="55.7143" x2="32.1905" y2="26.3095" gradientUnits="userSpaceOnUse">
<stop stop-color="#F6C932"/>
<stop offset="1" stop-color="#F6E381"/>
</linearGradient>
<linearGradient id="paint1_linear" x1="32.9565" y1="7.7381" x2="32.9565" y2="20.7381" gradientUnits="userSpaceOnUse">
<stop stop-color="#F5DD6C"/>
<stop offset="1" stop-color="#F5DD6C"/>
</linearGradient>
</defs>
</svg>
