<svg width="70" height="70" viewBox="0 0 70 70" fill="none" xmlns="http://www.w3.org/2000/svg">
<rect width="70" height="70" rx="15" fill="#DF257E"/>
<path d="M45.1904 37.4506L45.7926 36.4823C46.4299 35.4965 48.5475 31.9496 48.5475 28.5495C48.5475 21.08 42.4682 15 34.9988 15C27.5286 15 21.4525 21.08 21.4525 28.5495C21.4525 31.9464 23.5717 35.4933 24.2217 36.5055C24.2049 36.4823 25.182 38.0321 25.182 38.0321C26.8873 40.7032 28.4944 43.23 28.874 46.3142C28.9554 46.973 29.5129 47.4676 30.1749 47.4676H40.0292C40.6888 47.4676 41.2488 46.973 41.3309 46.3175C41.7401 42.9922 43.4166 40.298 45.1904 37.4506Z" fill="white"/>
<path d="M40.2062 48.951H29.6908C29.1947 48.951 28.7927 49.3546 28.7927 49.8507C28.7927 50.3476 29.1947 50.7481 29.6908 50.7481H40.2062C40.7008 50.7481 41.1035 50.3476 41.1035 49.8507C41.1035 49.3554 40.7008 48.951 40.2062 48.951Z" fill="white"/>
<path d="M40.2063 52.116H29.6908C29.1947 52.116 28.7927 52.5203 28.7927 53.0156C28.7927 53.5125 29.1947 53.913 29.6908 53.913H31.8667C31.956 54.5271 32.4744 55.0001 33.1133 55.0001H36.8835C37.5232 55.0001 38.0433 54.5271 38.131 53.913H40.2064C40.7009 53.913 41.1037 53.5125 41.1037 53.0156C41.1036 52.5203 40.7008 52.116 40.2063 52.116Z" fill="white"/>
</svg>
