<svg width="70" height="70" viewBox="0 0 70 70" fill="none" xmlns="http://www.w3.org/2000/svg">
<rect width="70" height="70" rx="15" fill="#FF9F10"/>
<g clip-path="url(#clip0)">
<path d="M51.9206 16.424H48.8403H21.1613C21.1613 16.424 19.7826 16.424 18.081 16.424C16.3794 16.424 15 18.1215 15 20.2154V40.3462C15 42.4401 16.6984 44.1376 18.7914 44.1376H29.5006V44.8044C29.5006 46.3744 31.6784 47.6466 34.3648 47.6466H35.6353C38.3217 47.6466 40.4995 46.3736 40.4995 44.8044C40.4995 44.5743 40.4995 44.3523 40.4995 44.1376H51.2087C53.3026 44.1376 55.0001 42.4401 55.0001 40.3462V20.2154C55.0017 18.1215 53.6222 16.424 51.9206 16.424ZM50.3062 38.6704C50.3062 39.0045 49.8364 39.2741 49.2569 39.2741H20.7448C20.1653 39.2741 19.6955 39.0045 19.6955 38.6704V21.0968C19.6955 20.7634 20.1653 20.493 20.7448 20.493H49.2569C49.8364 20.493 50.3062 20.7634 50.3062 21.0968V38.6704Z" fill="white"/>
<path d="M43.0882 53.5762C44.161 53.5762 45.0343 52.7036 45.0343 51.63C45.0343 50.5564 44.1618 49.6838 43.0882 49.6838H26.9127C25.8399 49.6838 24.9666 50.5564 24.9666 51.63C24.9666 52.7036 25.8399 53.5762 26.9127 53.5762H43.0882Z" fill="white"/>
</g>
<defs>
<clipPath id="clip0">
<rect width="40" height="40" fill="white" transform="translate(15 15)"/>
</clipPath>
</defs>
</svg>
