<svg width="70" height="70" viewBox="0 0 70 70" fill="none" xmlns="http://www.w3.org/2000/svg">
<rect width="70" height="70" rx="15" fill="#EF2184"/>
<g clip-path="url(#clip0)">
<path d="M31.0049 29.75C31.0049 30.7446 30.6098 31.6984 29.9065 32.4017C29.2033 33.1049 28.2494 33.5 27.2549 33.5C26.2603 33.5 25.3065 33.1049 24.6032 32.4017C23.9 31.6984 23.5049 30.7446 23.5049 29.75C23.5049 28.7554 23.9 27.8016 24.6032 27.0983C25.3065 26.3951 26.2603 26 27.2549 26C28.2494 26 29.2033 26.3951 29.9065 27.0983C30.6098 27.8016 31.0049 28.7554 31.0049 29.75Z" fill="white"/>
<path d="M19.75 21C18.7554 21 17.8016 21.3951 17.0983 22.0983C16.3951 22.8016 16 23.7554 16 24.75V47.25C16 48.2446 16.3951 49.1984 17.0983 49.9017C17.8016 50.6049 18.7554 51 19.75 51H52.25C53.2446 51 54.1984 50.6049 54.9016 49.9017C55.6049 49.1984 56 48.2446 56 47.25V24.75C56 23.7554 55.6049 22.8016 54.9016 22.0983C54.1984 21.3951 53.2446 21 52.25 21H19.75ZM52.25 23.5C52.5815 23.5 52.8995 23.6317 53.1339 23.8661C53.3683 24.1005 53.5 24.4185 53.5 24.75V39.75L44.0625 34.8825C43.8281 34.7651 43.5626 34.7243 43.3037 34.766C43.0449 34.8078 42.8057 34.9298 42.62 35.115L33.345 44.39L26.695 39.96C26.4549 39.8001 26.1669 39.7283 25.8798 39.7565C25.5928 39.7848 25.3243 39.9114 25.12 40.115L18.505 46V47.35C18.502 47.3167 18.5003 47.2834 18.5 47.25V24.75C18.5 24.4185 18.6317 24.1005 18.8661 23.8661C19.1005 23.6317 19.4185 23.5 19.75 23.5H52.25Z" fill="white"/>
</g>
<defs>
<clipPath id="clip0">
<rect width="40" height="40" fill="white" transform="translate(16 16)"/>
</clipPath>
</defs>
</svg>
