<svg width="70" height="70" viewBox="0 0 70 70" fill="none" xmlns="http://www.w3.org/2000/svg">
<rect width="70" height="70" rx="15" fill="#1C5FAD"/>
<g clip-path="url(#clip0)">
<g clip-path="url(#clip1)">
<path fill-rule="evenodd" clip-rule="evenodd" d="M35.2535 45.1901C31.8902 45.1901 28.4733 43.1936 26.4791 40.551C16.9118 40.551 16.6226 54.2187 16.6226 54.2187H53.882C53.882 54.2187 54.6331 40.4904 43.8739 40.4904C41.882 43.1656 38.6167 45.1901 35.2535 45.1901Z" fill="white"/>
<path fill-rule="evenodd" clip-rule="evenodd" d="M43.2673 28.8052C43.2673 32.7376 39.6778 40.2571 35.2463 40.2571C30.8218 40.2571 27.23 32.7353 27.23 28.8052C27.23 24.8752 30.8195 21.6845 35.2463 21.6845C39.6778 21.6869 43.2673 24.8775 43.2673 28.8052Z" fill="white"/>
<path fill-rule="evenodd" clip-rule="evenodd" d="M46.8457 25.4117C46.8457 24.6746 45.8194 24.0799 44.546 24.0752V22.5568C44.546 22.3306 44.6323 17.0338 35.2748 17.0338C25.9221 17.0338 26.0084 22.3306 26.0084 22.5568V24.1289C25.985 24.1289 25.9664 24.1219 25.9454 24.1219C24.6789 24.1219 23.6597 24.7073 23.6597 25.4326V31.856C23.6597 32.5767 24.6812 33.1644 25.9454 33.1644C27.2095 33.1644 28.2358 32.5767 28.2358 31.856V25.4326C28.2358 25.3324 28.1728 25.2414 28.1355 25.1481V23.3965C28.1355 23.2356 27.4637 19.2379 35.2748 19.2379C43.0882 19.2379 42.2766 23.2356 42.2766 23.3965V25.2414C42.2626 25.2997 42.2183 25.351 42.2183 25.4117V31.9819C42.2183 32.7213 43.2515 33.3207 44.532 33.3207C44.56 33.3207 44.581 33.3114 44.6089 33.3114V35.7114H42.3139V37.9738H46.869L46.8457 25.4117Z" fill="white"/>
</g>
</g>
<defs>
<clipPath id="clip0">
<rect width="40" height="40" fill="white" transform="translate(16 15)"/>
</clipPath>
<clipPath id="clip1">
<rect width="39.6501" height="37.3178" fill="white" transform="translate(14.2505 16.9825)"/>
</clipPath>
</defs>
</svg>
