<svg width="70" height="70" viewBox="0 0 70 70" fill="none" xmlns="http://www.w3.org/2000/svg">
<rect width="70" height="70" rx="15" fill="#32A76C"/>
<g clip-path="url(#clip0)">
<path d="M22.3238 47.2007C22.3091 47.2012 22.2947 47.2015 22.2802 47.2015C21.9341 47.2015 21.6013 47.0641 21.3558 46.8186L19.6125 45.0752C19.1019 44.5648 19.1019 43.7369 19.6125 43.2264C20.123 42.7159 20.9508 42.7159 21.4614 43.2264L22.2165 43.9815L27.7874 37.6141H15.3074C14.5854 37.6141 14 38.1994 14 38.9214V51.1236C14 51.8456 14.5854 52.431 15.3074 52.431H28.3815C29.1036 52.431 29.6889 51.8456 29.6889 51.1236V39.4115L23.2641 46.7549C23.0259 47.0272 22.6853 47.1887 22.3238 47.2007Z" fill="white"/>
<path d="M57.3178 35.8701H38.8413C38.4042 35.8701 37.996 36.0886 37.7536 36.4523L32.5238 44.2974C32.231 44.7365 32.231 45.3087 32.5238 45.7478L37.7536 53.5928C37.996 53.9565 38.4042 54.175 38.8413 54.175H57.3178C58.0398 54.175 58.6251 53.5896 58.6251 52.8676V37.1775C58.6251 36.4554 58.0398 35.8701 57.3178 35.8701ZM52.0877 48.9448H42.328C41.606 48.9448 41.0207 48.3595 41.0207 47.6374C41.0207 46.9154 41.606 46.3301 42.328 46.3301H52.0878C52.8098 46.3301 53.3952 46.9154 53.3952 47.6374C53.3951 48.3595 52.8098 48.9448 52.0877 48.9448ZM52.0877 43.7148H44.0713C43.3493 43.7148 42.7639 43.1295 42.7639 42.4074C42.7639 41.6854 43.3493 41.1 44.0713 41.1H52.0877C52.8098 41.1 53.3951 41.6854 53.3951 42.4074C53.3951 43.1295 52.8098 43.7148 52.0877 43.7148Z" fill="white"/>
<path d="M22.3233 26.2807C22.3089 26.2811 22.2945 26.2814 22.2802 26.2814C21.9341 26.2814 21.6013 26.144 21.3558 25.8985L19.6125 24.1552C19.1019 23.6447 19.1019 22.8169 19.6125 22.3063C20.123 21.7958 20.9508 21.7958 21.4614 22.3063L22.2173 23.0622L27.798 16.6941H15.3074C14.5854 16.6941 14 17.2794 14 18.0015V30.2036C14 30.9256 14.5854 31.511 15.3074 31.511H28.3815C29.1036 31.511 29.6889 30.9256 29.6889 30.2036V18.5034L23.2634 25.8356C23.0251 26.1077 22.6847 26.2688 22.3233 26.2807Z" fill="white"/>
<path d="M57.3178 14.9501H38.8413C38.4042 14.9501 37.996 15.1686 37.7536 15.5323L32.5238 23.3774C32.231 23.8164 32.231 24.3886 32.5238 24.8277L37.7536 32.6727C37.996 33.0364 38.4042 33.255 38.8413 33.255H57.3178C58.0398 33.255 58.6251 32.6696 58.6251 31.9476V16.2574C58.6251 15.5354 58.0398 14.9501 57.3178 14.9501ZM52.0877 28.0248H42.328C41.606 28.0248 41.0207 27.4395 41.0207 26.7175C41.0207 25.9955 41.606 25.4101 42.328 25.4101H52.0878C52.8098 25.4101 53.3952 25.9955 53.3952 26.7175C53.3951 27.4395 52.8098 28.0248 52.0877 28.0248ZM52.0877 22.7948H44.0713C43.3493 22.7948 42.7639 22.2095 42.7639 21.4875C42.7639 20.7654 43.3493 20.1801 44.0713 20.1801H52.0877C52.8098 20.1801 53.3951 20.7654 53.3951 21.4875C53.3951 22.2095 52.8098 22.7948 52.0877 22.7948Z" fill="white"/>
</g>
<defs>
<clipPath id="clip0">
<rect width="44.625" height="44.625" fill="white" transform="translate(14 12.25)"/>
</clipPath>
</defs>
</svg>
