<svg width="70" height="70" viewBox="0 0 70 70" fill="none" xmlns="http://www.w3.org/2000/svg">
<rect width="70" height="70" rx="15" fill="#32C349"/>
<path fill-rule="evenodd" clip-rule="evenodd" d="M50.5503 43.89C53.1603 34.15 46.9803 24.09 36.8278 21.37C25.3628 18.295 9.09026 26.28 12.7103 36.5225C13.9103 39.91 16.2203 40.7025 20.5778 40.765L20.8503 40.77C23.1528 40.7975 23.8003 40.9475 23.9953 41.2625C24.3128 41.7825 24.3178 42.61 23.9603 44.8875C23.7903 45.9625 23.7353 46.3375 23.6703 46.925C23.2728 50.5025 23.8778 53.2925 26.2203 55.8175C33.5403 63.7 47.6028 54.885 50.5503 43.89ZM17.4253 34.8525C15.6028 29.7025 27.2653 23.98 35.5328 26.195C43.0753 28.2175 47.5978 35.58 45.7203 42.5925C43.6253 50.4125 33.7653 56.5925 29.8853 52.4125C28.6853 51.1225 28.3878 49.7425 28.6403 47.475C28.6928 46.99 28.7428 46.655 28.9003 45.66C29.4478 42.1675 29.4403 40.5725 28.2553 38.645C26.7703 36.2275 25.0053 35.82 20.9128 35.7675L20.6478 35.7625C18.2378 35.73 17.6653 35.5325 17.4228 34.8525H17.4253Z" fill="white"/>
<path d="M25 34C24.1712 34 23.3763 33.6708 22.7903 33.0847C22.2042 32.4987 21.875 31.7038 21.875 30.875C21.875 30.0462 22.2042 29.2513 22.7903 28.6653C23.3763 28.0792 24.1712 27.75 25 27.75C25.8288 27.75 26.6237 28.0792 27.2097 28.6653C27.7958 29.2513 28.125 30.0462 28.125 30.875C28.125 31.7038 27.7958 32.4987 27.2097 33.0847C26.6237 33.6708 25.8288 34 25 34Z" fill="white"/>
<path d="M34.375 34C33.5462 34 32.7513 33.6708 32.1653 33.0847C31.5792 32.4987 31.25 31.7038 31.25 30.875C31.25 30.0462 31.5792 29.2513 32.1653 28.6653C32.7513 28.0792 33.5462 27.75 34.375 27.75C35.2038 27.75 35.9987 28.0792 36.5847 28.6653C37.1708 29.2513 37.5 30.0462 37.5 30.875C37.5 31.7038 37.1708 32.4987 36.5847 33.0847C35.9987 33.6708 35.2038 34 34.375 34Z" fill="white"/>
<path d="M40.625 41.5C39.7962 41.5 39.0013 41.1708 38.4153 40.5847C37.8292 39.9987 37.5 39.2038 37.5 38.375C37.5 37.5462 37.8292 36.7513 38.4153 36.1653C39.0013 35.5792 39.7962 35.25 40.625 35.25C41.4538 35.25 42.2487 35.5792 42.8347 36.1653C43.4208 36.7513 43.75 37.5462 43.75 38.375C43.75 39.2038 43.4208 39.9987 42.8347 40.5847C42.2487 41.1708 41.4538 41.5 40.625 41.5Z" fill="white"/>
<path d="M36.875 50.25C36.0462 50.25 35.2513 49.9208 34.6653 49.3347C34.0792 48.7487 33.75 47.9538 33.75 47.125C33.75 46.2962 34.0792 45.5013 34.6653 44.9153C35.2513 44.3292 36.0462 44 36.875 44C37.7038 44 38.4987 44.3292 39.0847 44.9153C39.6708 45.5013 40 46.2962 40 47.125C40 47.9538 39.6708 48.7487 39.0847 49.3347C38.4987 49.9208 37.7038 50.25 36.875 50.25Z" fill="white"/>
<path d="M45.9251 18.0125C46.2215 17.8537 46.5469 17.7563 46.8819 17.7262C47.2168 17.6961 47.5544 17.7338 47.8744 17.8372C48.1944 17.9406 48.4902 18.1075 48.7442 18.3279C48.9982 18.5484 49.2051 18.8177 49.3526 19.12L59.5851 40.12C59.7559 40.4975 59.7766 40.9258 59.6429 41.318C59.5092 41.7102 59.2312 42.0367 58.8654 42.2313C58.4996 42.4258 58.0734 42.4737 57.6735 42.3653C57.2736 42.2568 56.93 42.0002 56.7126 41.6475L44.9426 21.4725C44.7734 21.1823 44.6645 20.8608 44.6226 20.5275C44.5806 20.1942 44.6064 19.8559 44.6984 19.5328C44.7904 19.2097 44.9466 18.9084 45.1579 18.6472C45.3691 18.386 45.6309 18.1701 45.9276 18.0125H45.9251Z" fill="white"/>
<path fill-rule="evenodd" clip-rule="evenodd" d="M41.343 17.71C42.5605 19.9975 44.608 20.6375 46.588 19.585C48.5655 18.535 49.183 16.4775 47.9655 14.19C46.5755 11.57 43.5955 9.19499 41.6205 10.2425C39.6455 11.2925 39.9505 15.09 41.3455 17.71H41.343ZM43.5505 16.535C43.1078 15.6461 42.8364 14.6818 42.7505 13.6925C42.7133 13.2789 42.7284 12.8623 42.7955 12.4525L42.8405 12.475C42.9655 12.535 43.353 12.715 43.848 13.11C44.603 13.7125 45.353 14.6 45.758 15.3625C46.3305 16.4375 46.168 16.9775 45.413 17.38C44.663 17.78 44.123 17.61 43.5505 16.5375V16.535Z" fill="white"/>
</svg>
