<svg width="70" height="70" viewBox="0 0 70 70" fill="none" xmlns="http://www.w3.org/2000/svg">
<rect width="70" height="70" rx="15" fill="#11B9EE"/>
<path d="M47.8333 18.5C49.85 18.5 51.5 20.15 51.5 22.1666V29.8116L49.355 27.6666H40.5C36.4483 27.6666 33.1667 30.9483 33.1667 35V51.5H22.1667C20.15 51.5 18.5 49.85 18.5 47.8333V22.1666C18.5 20.15 20.15 18.5 22.1667 18.5H29.83C30.6 16.3733 32.6167 14.8333 35 14.8333C37.3833 14.8333 39.4 16.3733 40.17 18.5H47.8333ZM35 18.5C33.9917 18.5 33.1667 19.325 33.1667 20.3333C33.1667 21.3416 33.9917 22.1666 35 22.1666C36.0083 22.1666 36.8333 21.3416 36.8333 20.3333C36.8333 19.325 36.0083 18.5 35 18.5ZM40.5 55.1666C39.5275 55.1666 38.5949 54.7803 37.9073 54.0927C37.2196 53.4051 36.8333 52.4724 36.8333 51.5V35C36.8333 32.9833 38.4833 31.3333 40.5 31.3333H47.8333L55.1667 38.6666V51.5C55.1667 53.535 53.535 55.1666 51.5 55.1666H40.5ZM51.5 40.1883L46.3117 35H46V40.5H51.5V40.1883Z" fill="white"/>
</svg>
