<svg width="70" height="70" viewBox="0 0 70 70" fill="none" xmlns="http://www.w3.org/2000/svg">
<rect width="70" height="70" rx="15" fill="#19C634"/>
<path fill-rule="evenodd" clip-rule="evenodd" d="M50.5503 43.8901C53.1603 34.1501 46.9803 24.0901 36.8278 21.3701C25.3628 18.2951 9.0903 26.2801 12.7103 36.5226C13.9103 39.9101 16.2203 40.7026 20.5778 40.7651L20.8503 40.7701C23.1528 40.7976 23.8003 40.9476 23.9953 41.2626C24.3128 41.7826 24.3178 42.6101 23.9603 44.8876C23.7903 45.9626 23.7353 46.3376 23.6703 46.9251C23.2728 50.5026 23.8778 53.2926 26.2203 55.8176C33.5403 63.7001 47.6028 54.8851 50.5503 43.8901ZM17.4253 34.8526C15.6028 29.7026 27.2653 23.9801 35.5328 26.1951C43.0753 28.2176 47.5978 35.5801 45.7203 42.5926C43.6253 50.4126 33.7653 56.5926 29.8853 52.4126C28.6853 51.1226 28.3878 49.7426 28.6403 47.4751C28.6928 46.9901 28.7428 46.6551 28.9003 45.6601C29.4478 42.1676 29.4403 40.5726 28.2553 38.6451C26.7703 36.2276 25.0053 35.8201 20.9128 35.7676L20.6478 35.7626C18.2378 35.7301 17.6653 35.5326 17.4228 34.8526H17.4253Z" fill="white"/>
<path d="M25 34C24.1712 34 23.3763 33.6708 22.7903 33.0847C22.2042 32.4987 21.875 31.7038 21.875 30.875C21.875 30.0462 22.2042 29.2513 22.7903 28.6653C23.3763 28.0792 24.1712 27.75 25 27.75C25.8288 27.75 26.6237 28.0792 27.2097 28.6653C27.7958 29.2513 28.125 30.0462 28.125 30.875C28.125 31.7038 27.7958 32.4987 27.2097 33.0847C26.6237 33.6708 25.8288 34 25 34Z" fill="white"/>
<path d="M34.375 34C33.5462 34 32.7513 33.6708 32.1653 33.0847C31.5792 32.4987 31.25 31.7038 31.25 30.875C31.25 30.0462 31.5792 29.2513 32.1653 28.6653C32.7513 28.0792 33.5462 27.75 34.375 27.75C35.2038 27.75 35.9987 28.0792 36.5847 28.6653C37.1708 29.2513 37.5 30.0462 37.5 30.875C37.5 31.7038 37.1708 32.4987 36.5847 33.0847C35.9987 33.6708 35.2038 34 34.375 34Z" fill="white"/>
<path d="M40.625 41.5C39.7962 41.5 39.0013 41.1708 38.4153 40.5847C37.8292 39.9987 37.5 39.2038 37.5 38.375C37.5 37.5462 37.8292 36.7513 38.4153 36.1653C39.0013 35.5792 39.7962 35.25 40.625 35.25C41.4538 35.25 42.2487 35.5792 42.8347 36.1653C43.4208 36.7513 43.75 37.5462 43.75 38.375C43.75 39.2038 43.4208 39.9987 42.8347 40.5847C42.2487 41.1708 41.4538 41.5 40.625 41.5Z" fill="white"/>
<path d="M36.875 50.25C36.0462 50.25 35.2513 49.9208 34.6653 49.3347C34.0792 48.7487 33.75 47.9538 33.75 47.125C33.75 46.2962 34.0792 45.5013 34.6653 44.9153C35.2513 44.3292 36.0462 44 36.875 44C37.7038 44 38.4987 44.3292 39.0847 44.9153C39.6708 45.5013 40 46.2962 40 47.125C40 47.9538 39.6708 48.7487 39.0847 49.3347C38.4987 49.9208 37.7038 50.25 36.875 50.25Z" fill="white"/>
<path d="M45.9252 18.0125C46.2216 17.8537 46.547 17.7563 46.882 17.7262C47.2169 17.6961 47.5545 17.7339 47.8745 17.8373C48.1945 17.9407 48.4903 18.1076 48.7443 18.328C48.9983 18.5484 49.2052 18.8178 49.3527 19.12L59.5852 40.12C59.756 40.4975 59.7767 40.9259 59.643 41.318C59.5094 41.7102 59.2313 42.0368 58.8655 42.2313C58.4997 42.4258 58.0735 42.4738 57.6736 42.3653C57.2737 42.2569 56.9301 42.0002 56.7127 41.6475L44.9427 21.4725C44.7735 21.1823 44.6646 20.8609 44.6227 20.5276C44.5807 20.1943 44.6065 19.8559 44.6985 19.5328C44.7905 19.2097 44.9468 18.9085 45.158 18.6473C45.3692 18.386 45.631 18.1701 45.9277 18.0125H45.9252Z" fill="white"/>
<path fill-rule="evenodd" clip-rule="evenodd" d="M41.3431 17.71C42.5606 19.9975 44.6081 20.6375 46.5881 19.585C48.5656 18.535 49.1831 16.4775 47.9656 14.19C46.5756 11.57 43.5956 9.19502 41.6206 10.2425C39.6456 11.2925 39.9506 15.09 41.3456 17.71H41.3431ZM43.5506 16.535C43.1079 15.6461 42.8365 14.6818 42.7506 13.6925C42.7134 13.2789 42.7285 12.8623 42.7956 12.4525L42.8406 12.475C42.9656 12.535 43.3531 12.715 43.8481 13.11C44.6031 13.7125 45.3531 14.6 45.7581 15.3625C46.3306 16.4375 46.1681 16.9775 45.4131 17.38C44.6631 17.78 44.1231 17.61 43.5506 16.5375V16.535Z" fill="white"/>
</svg>
