<svg width="70" height="70" viewBox="0 0 70 70" fill="none" xmlns="http://www.w3.org/2000/svg">
<rect width="70" height="70" rx="15" fill="#0FCD6D"/>
<g clip-path="url(#clip0)">
<path d="M21.6213 51.5925H52.3779C54.926 51.5925 57.0001 49.5261 57.0001 46.9721V28.492C57.0001 25.938 54.9261 23.8716 52.3779 23.8716H33.9135V23.3425V23.277C33.9135 20.5859 31.7359 18.4075 29.0423 18.4075H21.8677C19.1827 18.4075 17 20.5859 17 23.277V46.9721C17 49.5261 19.0698 51.5925 21.6213 51.5925ZM22.7992 29.2392C22.7992 28.287 23.5713 27.5158 24.5226 27.5158H24.6975C25.6488 27.5158 26.4209 28.287 26.4209 29.2392V43.1754C26.4209 44.1267 25.6488 44.8988 24.6975 44.8988H24.5226C23.5704 44.8988 22.7992 44.1267 22.7992 43.1754V29.2392Z" fill="white"/>
</g>
<defs>
<clipPath id="clip0">
<rect width="40" height="40" fill="white" transform="translate(17 15)"/>
</clipPath>
</defs>
</svg>
