<svg width="70" height="70" viewBox="0 0 70 70" fill="none" xmlns="http://www.w3.org/2000/svg">
<rect width="70" height="70" rx="15" fill="#F0271A"/>
<g clip-path="url(#clip0)">
<path d="M34.6256 19.0769L29.8591 19.0712C28.6005 19.0712 27.5802 20.089 27.5794 21.3533L27.5629 50.6415C27.5629 51.8993 28.5815 52.9262 29.8426 52.9262L34.6058 52.9287C35.8676 52.9287 36.8896 51.9067 36.8896 50.6497L36.9052 21.3591C36.9095 20.0998 35.8866 19.0769 34.6256 19.0769ZM34.1705 49.549L30.3036 49.5532C29.8633 49.5532 29.5027 49.1934 29.5027 48.753C29.5035 48.3127 29.8616 47.9521 30.3044 47.9521L34.1721 47.957C34.6117 47.957 34.9715 48.3168 34.9715 48.7563C34.9715 49.1974 34.6133 49.549 34.1705 49.549ZM34.1746 26.626L30.3077 26.6235C29.8674 26.6235 29.5068 26.2637 29.5068 25.8226C29.5068 25.3814 29.8674 25.0225 30.3077 25.0225L34.1746 25.0183C34.615 25.0183 34.974 25.3855 34.974 25.8258C34.9723 26.2653 34.6149 26.626 34.1746 26.626Z" fill="white"/>
<path d="M23.0594 19.0761L18.2986 19.0704C17.0376 19.0704 16.0149 20.0882 16.0123 21.3526L16 50.6425C15.9967 51.9002 17.0178 52.9272 18.2764 52.9272L23.0379 52.9296C24.3007 52.9296 25.3243 51.9076 25.3259 50.6506L25.3382 21.36C25.3416 20.0989 24.3212 19.0761 23.0594 19.0761ZM22.6091 49.549L18.7406 49.5532C18.3019 49.5532 17.9405 49.1934 17.9405 48.753C17.9429 48.3127 18.3003 47.9521 18.7414 47.9521L22.6091 47.957C23.0495 47.957 23.4068 48.3168 23.4068 48.7564C23.4076 49.1974 23.0487 49.549 22.6091 49.549ZM22.6091 26.626L18.7438 26.6236C18.3043 26.6236 17.9453 26.2638 17.9453 25.8226C17.9453 25.3815 18.3043 25.0225 18.7438 25.0225L22.6091 25.0183C23.0503 25.0183 23.4076 25.3855 23.4076 25.8258C23.4076 26.2653 23.0487 26.626 22.6091 26.626Z" fill="white"/>
<path d="M41.1066 22.2891C40.9488 21.5629 40.2324 21.102 39.5054 21.2614C38.7791 21.4191 38.3191 22.1363 38.4768 22.8626L44.7417 51.5864C44.8995 52.3127 45.6166 52.7727 46.3429 52.6158C47.0692 52.4572 47.53 51.74 47.3714 51.0138L41.1066 22.2891Z" fill="white"/>
<path d="M55.9688 49.1382L49.7039 20.4137C49.5461 19.6874 48.829 19.2274 48.1027 19.3859C47.3764 19.5445 46.9156 20.2609 47.0741 20.9871L53.3391 49.7118C53.4969 50.438 54.2141 50.8973 54.9403 50.7395C55.6657 50.5809 56.1273 49.8645 55.9688 49.1382Z" fill="white"/>
<path d="M43.3798 21.052C43.3067 20.7169 42.9764 20.504 42.6412 20.5772C42.3059 20.6504 42.0932 20.9814 42.1664 21.3166L48.7394 51.4567C48.8134 51.7918 49.1436 52.0039 49.478 51.9315C49.814 51.8575 50.026 51.5265 49.9528 51.1921L43.3798 21.052Z" fill="white"/>
<path d="M45.5363 20.5812C45.4633 20.2461 45.133 20.0332 44.7977 20.1064C44.4634 20.1795 44.2506 20.5105 44.3229 20.845L50.8968 50.9859C50.9698 51.3202 51.3001 51.533 51.6354 51.4591C51.9705 51.386 52.1833 51.0557 52.1094 50.7205L45.5363 20.5812Z" fill="white"/>
</g>
<defs>
<clipPath id="clip0">
<rect width="40" height="40" fill="white" transform="translate(16 16)"/>
</clipPath>
</defs>
</svg>
