<svg width="70" height="70" viewBox="0 0 70 70" fill="none" xmlns="http://www.w3.org/2000/svg">
<rect width="70" height="70" rx="15" fill="#1475E8"/>
<path d="M22.5026 56.875H45.7972C48.1916 56.875 49.8678 55.729 50.5091 53.7195C50.3211 53.7315 50.133 53.7315 49.9447 53.7195H49.6111C49.3223 53.6981 49.0357 53.6494 48.756 53.5741C46.7386 53.0234 45.339 51.1925 45.3356 49.1016V31.3998H44.2922C43.8202 31.3998 43.4371 31.0167 43.4371 30.5447C43.4371 30.0725 43.8202 29.6893 44.2922 29.6893H50.8001V19.4274C50.8001 15.7418 48.2345 14.4248 45.7972 14.4248H41.6411V19.2308C41.6411 19.7028 41.2579 20.0859 40.786 20.0859H27.4884C27.0161 20.0859 26.633 19.7031 26.633 19.2308V14.4163H22.5026C20.0825 14.4163 17.5 15.7332 17.5 19.4192V51.915C17.5 55.5238 20.0825 56.875 22.5026 56.875ZM26.9153 26.3715H41.3847C41.8567 26.3715 42.2398 26.7546 42.2398 27.2266C42.2398 27.6989 41.8567 28.0817 41.3847 28.0817H26.9153C26.4434 28.0817 26.0602 27.6989 26.0602 27.2266C26.0602 26.7546 26.4434 26.3715 26.9153 26.3715ZM26.9153 31.1432H41.3847C41.8567 31.1432 42.2398 31.5263 42.2398 31.9983C42.2398 32.4705 41.8567 32.8537 41.3847 32.8537H26.9153C26.4434 32.8537 26.0602 32.4705 26.0602 31.9983C26.0602 31.5263 26.4434 31.1432 26.9153 31.1432ZM26.9153 35.9152H41.3847C41.8567 35.9152 42.2398 36.298 42.2398 36.7703C42.2398 37.2422 41.8567 37.6254 41.3847 37.6254H26.9153C26.4434 37.6254 26.0602 37.2422 26.0602 36.7703C26.0602 36.2983 26.4434 35.9152 26.9153 35.9152ZM26.9153 40.6868H41.3847C41.8567 40.6868 42.2398 41.07 42.2398 41.5419C42.2398 42.0139 41.8567 42.397 41.3847 42.397H26.9153C26.4434 42.397 26.0602 42.0142 26.0602 41.5419C26.0602 41.07 26.4434 40.6868 26.9153 40.6868ZM26.9153 45.4585H41.3847C41.8567 45.4585 42.2398 45.8417 42.2398 46.3136C42.2398 46.7859 41.8567 47.169 41.3847 47.169H26.9153C26.4434 47.169 26.0602 46.7859 26.0602 46.3136C26.0602 45.8417 26.4434 45.4585 26.9153 45.4585Z" fill="white"/>
<path d="M28.3691 14.4162V18.3585H39.9308V13.125H28.3691V14.4162Z" fill="white"/>
<path d="M52.8695 40.986H47.02V49.1613C47.032 50.5288 47.9796 51.7097 49.3118 52.0175C50.9161 52.3299 52.4692 51.2822 52.7813 49.678C52.8146 49.5052 52.8333 49.3291 52.8352 49.153L52.8695 40.986Z" fill="white"/>
<path d="M55.5975 31.4084H50.7915V29.6982H55.5975C56.0694 29.6982 56.4526 30.081 56.4526 30.5533C56.4526 31.0252 56.0694 31.4084 55.5975 31.4084Z" fill="white"/>
</svg>
