<svg width="70" height="70" viewBox="0 0 70 70" fill="none" xmlns="http://www.w3.org/2000/svg">
<rect width="70" height="70" rx="15" fill="#1570DB"/>
<g clip-path="url(#clip0)">
<path d="M30.1922 15C29.9689 15.0332 29.7557 15.1151 29.5676 15.24C29.5676 15.24 27.6215 16.4646 25.5292 17.7892C23.4369 19.1123 21.1092 20.5708 20.5769 20.8661C20.544 20.8804 20.5117 20.8958 20.4799 20.9123C18.5476 22.1046 18.1461 24.0523 18.0769 25.1446C18.0722 25.1954 18.0769 25.2369 18.0769 25.2908C18.0599 25.7 18.0769 25.9631 18.0769 25.9631V46.06C18.0769 48.98 21.4815 50.3846 24.7122 50.3846C25.7892 50.3846 26.8661 50.2108 27.7892 49.9031C28.4045 49.5954 28.8461 48.98 28.8461 48.3646V32.2108C28.8461 28.6723 29.6153 27.0108 31.923 25.6261C32.5384 25.3184 38.9907 20.8646 38.9907 20.8646C39.2984 20.5569 39.6153 19.9323 39.6153 19.4708V19.3261C39.6153 18.7108 39.3076 18.24 38.8461 17.9323C38.3845 17.6246 37.7692 17.6246 37.3076 17.9323C37.1538 18.0861 27.7692 24.4046 25.7692 25.4815C23.7692 26.7123 21.903 27.0092 21.4415 26.3938C21.2984 26.2508 21.1738 25.8123 21.1538 25.3846V25.3369V25.2877C21.1553 24.8692 21.263 24.0815 22.1153 23.5569C22.9799 23.0754 25.1261 21.7046 27.2122 20.3846C28.0938 19.8261 28.203 19.7661 28.8938 19.3261C28.9847 19.702 29.2138 20.0298 29.5355 20.2443C29.8573 20.4589 30.248 20.5444 30.6299 20.4839C31.0118 20.4233 31.3569 20.2212 31.5965 19.9177C31.8362 19.6143 31.9527 19.2317 31.923 18.8461V16.5384C31.9247 16.3192 31.8796 16.102 31.7905 15.9016C31.7015 15.7013 31.5706 15.5222 31.4067 15.3765C31.2428 15.2308 31.0496 15.1219 30.8402 15.0569C30.6307 14.992 30.4098 14.9726 30.1922 15ZM42.4999 20.3846C42.2553 20.4253 42.0241 20.5245 41.8261 20.6738C41.8261 20.6738 34.0815 25.8846 32.7399 26.7785C32.7237 26.7945 32.7078 26.8109 32.6922 26.8277C31.5784 27.6631 30.9184 28.6569 30.6245 29.5661C30.4169 30.2108 30.3861 30.7369 30.3845 31.1538V31.6354C30.3823 31.683 30.3823 31.7308 30.3845 31.7785V50.3846C30.3845 53.3077 33.7507 55 36.8276 55C38.2122 55 39.4615 54.7015 40.3845 54.0861C42.2307 53.0092 51.1538 46.0584 51.1538 46.0584C51.6153 45.7508 51.923 45.3169 51.923 44.8554V24.8554C51.923 24.0861 51.6245 23.6246 51.0092 23.3169C50.5476 23.0092 49.7892 23.1538 49.3276 23.4615C46.8661 25.3077 40.2399 30.52 38.7015 31.4431C36.5476 32.6738 34.5184 32.9815 33.7492 32.2123C33.4415 31.9046 33.4615 31.6154 33.4615 31.1538C33.4707 30.8892 33.4999 30.6615 33.5584 30.48C33.6445 30.2123 33.8199 29.8831 34.4707 29.3754C34.5015 29.3508 34.4861 29.3523 34.5184 29.3277C35.6307 28.5846 39.0322 26.2661 41.2507 24.7584C41.3764 25.0956 41.6163 25.3781 41.9287 25.5567C42.2411 25.7353 42.6062 25.7987 42.9605 25.736C43.3149 25.6733 43.636 25.4883 43.8681 25.2133C44.1001 24.9383 44.2284 24.5906 44.2307 24.2308V21.9231C44.2324 21.7038 44.1872 21.4867 44.0982 21.2863C44.0091 21.0859 43.8783 20.9068 43.7144 20.7611C43.5505 20.6154 43.3573 20.5065 43.1479 20.4415C42.9384 20.3766 42.7175 20.3572 42.4999 20.3846ZM48.8461 31.6354V34.7123L41.1538 40.6723V37.5954L48.8461 31.6354Z" fill="white"/>
</g>
<defs>
<clipPath id="clip0">
<rect width="40" height="40" fill="white" transform="translate(15 15)"/>
</clipPath>
</defs>
</svg>
