<svg width="70" height="70" viewBox="0 0 70 70" fill="none" xmlns="http://www.w3.org/2000/svg">
<rect width="70" height="70" rx="15" fill="#0583F7"/>
<path d="M19.4988 19.3844V50.6156C19.4988 51.9325 20.5663 53 21.8833 53H25.5919V17H21.8833C20.5663 17 19.4988 18.0675 19.4988 19.3844Z" fill="white"/>
<path d="M27.9883 17V53H48.658C49.677 53 50.5012 52.1734 50.5012 51.1617V18.84C50.5012 17.8258 49.677 17.0008 48.658 17.0008H46.1933V29.5277C46.1933 30.8447 45.4144 31.1825 44.4526 30.2827L41.6009 27.6137L38.5496 30.3273C37.5656 31.2032 36.7677 30.8448 36.7677 29.5278V17H27.9883ZM45.4628 37.6713V41.7773H33.408V37.6713H45.4628Z" fill="white"/>
</svg>
