<svg width="70" height="70" viewBox="0 0 70 70" fill="none" xmlns="http://www.w3.org/2000/svg">
<rect width="70" height="70" rx="15" fill="#073F94"/>
<path d="M16.7528 51.5606C16.7528 54.0147 24.9233 56 34.9988 56C45.0776 56 53.248 54.0155 53.248 51.5606V44.0593C53.248 43.6124 52.9678 43.1811 52.4621 42.7742H17.5395C17.0339 43.1811 16.7528 43.6124 16.7528 44.0593V51.5606ZM48.9467 46.6074C49.4998 46.6074 49.9507 47.0576 49.9507 47.6089C49.9507 48.1644 49.4997 48.6121 48.9467 48.6121C48.3904 48.6121 47.9427 48.1644 47.9427 47.6089C47.9427 47.0576 48.3904 46.6074 48.9467 46.6074Z" fill="white"/>
<path d="M53.248 27.9407V20.4418C53.248 17.9868 45.0776 16 34.9988 16C24.9233 16 16.7528 17.9868 16.7528 20.4418V27.9407C16.7528 28.3026 16.9375 28.6531 17.2716 28.9881H52.7301C53.0633 28.6523 53.248 28.3026 53.248 27.9407ZM21.6725 20.3576C21.6725 19.2099 27.7784 18.2784 35.31 18.2784C42.8408 18.2784 48.9459 19.2097 48.9459 20.3576C48.9459 21.5062 42.8399 22.4368 35.31 22.4368C27.7785 22.4368 21.6725 21.5063 21.6725 20.3576ZM48.9467 25.69C48.3904 25.69 47.9427 25.2422 47.9427 24.6859C47.9427 24.1353 48.3912 23.6861 48.9467 23.6861C49.4998 23.6861 49.9507 24.1346 49.9507 24.6859C49.9508 25.2422 49.4998 25.69 48.9467 25.69Z" fill="white"/>
<path d="M16.7528 39.7507C16.7528 40.2367 17.0747 40.7032 17.667 41.1404H52.3347C52.927 40.7033 53.248 40.2369 53.248 39.7507V32.2493C53.248 31.6741 52.7946 31.1261 51.9769 30.6219H18.0239C17.2061 31.1261 16.752 31.6741 16.752 32.2493V39.7507H16.7528ZM48.9467 34.9176C49.4998 34.9176 49.9507 35.3653 49.9507 35.9216C49.9507 36.4747 49.4997 36.9223 48.9467 36.9223C48.3904 36.9223 47.9427 36.4746 47.9427 35.9216C47.9427 35.3653 48.3904 34.9176 48.9467 34.9176Z" fill="white"/>
</svg>
