<svg width="70" height="70" viewBox="0 0 70 70" fill="none" xmlns="http://www.w3.org/2000/svg">
<rect width="70" height="70" rx="15" fill="#3ED4F5"/>
<path d="M51 55H21C19.6198 55 18.4414 54.5117 17.4648 53.5352C16.4883 52.5586 16 51.3802 16 50V25C16 23.6198 16.4883 22.4414 17.4648 21.4648C18.4414 20.4883 19.6198 20 21 20H23.5C24.2031 20 24.7956 20.2409 25.2773 20.7227C25.7591 21.2044 26 21.7904 26 22.4805C26 23.1706 25.7591 23.763 25.2773 24.2578C24.7956 24.7526 24.2031 25 23.5 25H22.25C21.9115 25 21.6185 25.1237 21.3711 25.3711C21.1237 25.6185 21 25.9115 21 26.25V33.75C21 34.0885 21.1237 34.3815 21.3711 34.6289C21.6185 34.8763 21.9115 35 22.25 35H49.75C50.0885 35 50.3815 34.8763 50.6289 34.6289C50.8763 34.3815 51 34.0885 51 33.75V26.25C51 25.9115 50.8763 25.6185 50.6289 25.3711C50.3815 25.1237 50.0885 25 49.75 25H48.5C47.8229 25 47.237 24.7526 46.7422 24.2578C46.2474 23.763 46 23.1706 46 22.4805C46 21.7904 46.2474 21.2044 46.7422 20.7227C47.237 20.2409 47.8229 20 48.5 20H51C52.3802 20 53.5586 20.4883 54.5352 21.4648C55.5117 22.4414 56 23.6198 56 25V50C56 51.3802 55.5117 52.5586 54.5352 53.5352C53.5586 54.5117 52.3802 55 51 55ZM51 40H21V41.25C21 41.5885 21.1237 41.8815 21.3711 42.1289C21.6185 42.3763 21.9115 42.5 22.25 42.5H49.75C50.0885 42.5 50.3815 42.3763 50.6289 42.1289C50.8763 41.8815 51 41.5885 51 41.25V40ZM51 47.5H21V48.75C21 49.0885 21.1237 49.3815 21.3711 49.6289C21.6185 49.8763 21.9115 50 22.25 50H49.75C50.0885 50 50.3815 49.8763 50.6289 49.6289C50.8763 49.3815 51 49.0885 51 48.75V47.5ZM41 25H38.5V27.5C38.5 28.1771 38.2591 28.763 37.7773 29.2578C37.2956 29.7526 36.7031 30 36 30C35.2969 30 34.7044 29.7526 34.2227 29.2578C33.7409 28.763 33.5 28.1771 33.5 27.5V25H31C30.2969 25 29.7044 24.7526 29.2227 24.2578C28.7409 23.763 28.5 23.1706 28.5 22.4805C28.5 21.7904 28.7474 21.2044 29.2422 20.7227C29.737 20.2409 30.3229 20 31 20H33.5V17.5C33.5 16.7969 33.7474 16.2044 34.2422 15.7227C34.737 15.2409 35.3294 15 36.0195 15C36.7096 15 37.2956 15.2409 37.7773 15.7227C38.2591 16.2044 38.5 16.7969 38.5 17.5V20H41C41.7031 20 42.2956 20.2409 42.7773 20.7227C43.2591 21.2044 43.5 21.7904 43.5 22.4805C43.5 23.1706 43.2591 23.763 42.7773 24.2578C42.2956 24.7526 41.7031 25 41 25Z" fill="white"/>
</svg>
