<svg width="70" height="70" viewBox="0 0 70 70" fill="none" xmlns="http://www.w3.org/2000/svg">
<rect width="70" height="70" rx="15" fill="#3978AA"/>
<path d="M56.7555 36.0617L48.6555 32.8977C48.3672 32.7852 47.7695 32.6375 47.0945 32.8977L38.9945 36.0617C38.2422 36.357 37.75 37.0461 37.75 37.8125C37.75 45.6594 42.5805 51.0875 47.0945 52.8523C47.7695 53.1125 48.3602 52.9648 48.6555 52.8523C52.2625 51.4461 58 46.5664 58 37.8125C58 37.0461 57.5078 36.357 56.7555 36.0617ZM47.875 49.5125V36.2164L54.5898 38.8391C54.1961 44.9633 50.3078 48.3594 47.875 49.5125ZM28.75 35C33.7211 35 37.75 30.9711 37.75 26C37.75 21.0289 33.7211 17 28.75 17C23.7789 17 19.75 21.0289 19.75 26C19.75 30.9711 23.7789 35 28.75 35ZM35.5 37.8125C35.5 37.6367 35.5562 37.475 35.5773 37.3062C35.4016 37.2992 35.2328 37.25 35.05 37.25H33.8758C32.3148 37.9672 30.5781 38.375 28.75 38.375C26.9219 38.375 25.1922 37.9672 23.6242 37.25H22.45C17.2328 37.25 13 41.4828 13 46.7V49.625C13 51.4883 14.5117 53 16.375 53H41.125C41.6031 53 42.0602 52.8945 42.475 52.7188C38.6781 49.7023 35.5 44.5133 35.5 37.8125Z" fill="white"/>
</svg>
