<svg width="70" height="70" viewBox="0 0 70 70" fill="none" xmlns="http://www.w3.org/2000/svg">
<rect width="70" height="70" rx="15" fill="#2070E8"/>
<path d="M22 33C24.2063 33 26 31.2063 26 29C26 26.7937 24.2063 25 22 25C19.7938 25 18 26.7937 18 29C18 31.2063 19.7938 33 22 33ZM50 33C52.2062 33 54 31.2063 54 29C54 26.7937 52.2062 25 50 25C47.7938 25 46 26.7937 46 29C46 31.2063 47.7938 33 50 33ZM52 35H48C46.9 35 45.9062 35.4438 45.1812 36.1625C47.7 37.5438 49.4875 40.0375 49.875 43H54C55.1063 43 56 42.1063 56 41V39C56 36.7937 54.2062 35 52 35ZM36 35C39.8687 35 43 31.8687 43 28C43 24.1312 39.8687 21 36 21C32.1313 21 29 24.1312 29 28C29 31.8687 32.1313 35 36 35ZM40.8 37H40.2812C38.9813 37.625 37.5375 38 36 38C34.4625 38 33.025 37.625 31.7188 37H31.2C27.225 37 24 40.225 24 44.2V46C24 47.6562 25.3438 49 27 49H45C46.6562 49 48 47.6562 48 46V44.2C48 40.225 44.775 37 40.8 37ZM26.8188 36.1625C26.0938 35.4438 25.1 35 24 35H20C17.7938 35 16 36.7937 16 39V41C16 42.1063 16.8937 43 18 43H22.1188C22.5125 40.0375 24.3 37.5438 26.8188 36.1625Z" fill="white"/>
</svg>
