<svg width="70" height="70" viewBox="0 0 70 70" fill="none" xmlns="http://www.w3.org/2000/svg">
<rect width="70" height="70" rx="15" fill="#0057BD"/>
<path d="M39.8015 41.5807C39.8015 42.3399 39.1843 42.9578 38.422 42.9578H33.5756C32.8157 42.9578 32.2 42.339 32.2 41.5807V36.9313H16V49.5055C16 51.7441 17.8153 53.5601 20.0563 53.5601H51.9454C54.1825 53.5601 56 51.7441 56 49.5055V36.9305H39.8015V41.5807Z" fill="white"/>
<path d="M51.9453 27.3006H20.0563C17.8153 27.3006 16 29.1181 16 31.356V35.3075H32.2V34.3491C32.2 33.5899 32.8157 32.9743 33.5756 32.9743H38.422C39.1842 32.9743 39.8015 33.5899 39.8015 34.3491V35.3075H56V31.356C56 29.1174 54.1824 27.3006 51.9453 27.3006Z" fill="white"/>
<path d="M42.3914 25.6474C43.2133 25.6474 43.8825 24.9782 43.8825 24.1547V22.4309C43.8825 20.2303 42.092 18.4398 39.8921 18.4398H32.1069C29.9087 18.4398 28.1198 20.2303 28.1198 22.4309V24.1547C28.1198 24.9774 28.7882 25.6473 29.6093 25.6473C30.432 25.6473 31.1021 24.9781 31.1021 24.1546V22.4308C31.1021 21.8749 31.5534 21.4228 32.107 21.4228H39.8922C40.449 21.4228 40.9018 21.8749 40.9018 22.4308V24.1546C40.9018 24.9775 41.5702 25.6474 42.3914 25.6474Z" fill="white"/>
<path d="M33.8229 34.5949C33.8229 35.0423 33.8229 40.889 33.8229 41.334C34.2432 41.334 37.7621 41.334 38.1785 41.334C38.1785 40.8889 38.1785 35.0423 38.1785 34.5949C37.7621 34.5949 34.2425 34.5949 33.8229 34.5949Z" fill="white"/>
</svg>
