<svg width="70" height="70" viewBox="0 0 70 70" fill="none" xmlns="http://www.w3.org/2000/svg">
<rect width="70" height="70" rx="15" fill="#7368E1"/>
<path d="M23.6665 21.6667V48.3333C23.6665 49.2174 24.0177 50.0652 24.6428 50.6904C25.2679 51.3155 26.1158 51.6667 26.9998 51.6667H46.9998C47.8839 51.6667 48.7317 51.3155 49.3569 50.6904C49.982 50.0652 50.3332 49.2174 50.3332 48.3333V28.9033C50.3331 28.4593 50.2443 28.0197 50.072 27.6104C49.8997 27.2011 49.6474 26.8304 49.3298 26.52L41.9298 19.2833C41.3071 18.6744 40.4708 18.3335 39.5998 18.3333H26.9998C26.1158 18.3333 25.2679 18.6845 24.6428 19.3097C24.0177 19.9348 23.6665 20.7826 23.6665 21.6667V21.6667Z" stroke="white" stroke-width="4" stroke-linecap="round" stroke-linejoin="round"/>
<path d="M40.333 18.3333V25C40.333 25.8841 40.6842 26.7319 41.3093 27.357C41.9344 27.9822 42.7823 28.3333 43.6663 28.3333H50.333" stroke="white" stroke-width="2" stroke-linejoin="round"/>
<path d="M29 35H44" stroke="white"/>
<path d="M29 39H44" stroke="white"/>
<path d="M29 43H44" stroke="white"/>
</svg>
