<svg width="70" height="70" viewBox="0 0 70 70" fill="none" xmlns="http://www.w3.org/2000/svg">
<rect width="70" height="70" rx="15" fill="#0462EE"/>
<g clip-path="url(#clip0)">
<path d="M23.2102 51.101C30.8674 57.3528 42.156 56.925 49.2993 49.7847C56.4389 42.6444 56.8667 31.3558 50.6134 23.6963C50.3622 23.388 49.9206 23.3751 49.6397 23.6559L23.1706 50.128C22.8897 50.4082 22.9027 50.8497 23.2102 51.101Z" fill="white"/>
<path d="M36.0154 33.69L47.8438 21.8593C48.1247 21.5784 48.111 21.1368 47.8034 20.8864C40.6571 15.0563 30.3566 15.0563 23.2079 20.8864C22.9003 21.1376 22.8867 21.5784 23.1676 21.8593L34.999 33.69C35.28 33.971 35.7345 33.971 36.0154 33.69Z" fill="white"/>
<path d="M31.0593 34.65L20.0211 45.6044C19.4242 46.1967 19.4205 47.1606 20.0128 47.7574C20.3104 48.0574 20.7017 48.2074 21.093 48.2074C21.4805 48.2074 21.868 48.0604 22.1657 47.765L33.2038 36.8106C33.8007 36.2183 33.8045 35.2545 33.2122 34.6576C32.62 34.0608 31.6554 34.0577 31.0593 34.65Z" fill="white"/>
<path d="M17.4075 43.3259C17.7036 43.616 18.0881 43.7606 18.4726 43.7606C18.8677 43.7606 19.262 43.6076 19.5605 43.3031L29.4795 33.1754C30.068 32.5748 30.0581 31.6109 29.4574 31.0224C28.8568 30.4339 27.893 30.4438 27.3044 31.0445L17.3855 41.1722C16.7969 41.7728 16.8069 42.7374 17.4075 43.3259Z" fill="white"/>
<path d="M16.5229 38.3636C16.918 38.3636 17.3123 38.2106 17.6108 37.9061L25.6175 29.7312C26.2059 29.1305 26.1961 28.1667 25.5954 27.5782C24.9947 26.9897 24.0309 26.9995 23.4423 27.6003L15.435 35.776C14.8465 36.3766 14.8563 37.3404 15.4571 37.929C15.754 38.2189 16.1384 38.3636 16.5229 38.3636Z" fill="white"/>
<path d="M16.8555 30.81C17.2568 30.81 17.658 30.6524 17.9572 30.3396L22.1939 25.905C22.7747 25.2967 22.7526 24.3328 22.1452 23.752C21.5369 23.1711 20.5739 23.1939 19.9922 23.8007L15.7554 28.2353C15.1746 28.8436 15.1967 29.8074 15.8041 30.3883C16.0996 30.6707 16.4779 30.81 16.8555 30.81Z" fill="white"/>
</g>
<defs>
<clipPath id="clip0">
<rect width="40" height="40" fill="white" transform="translate(15 16)"/>
</clipPath>
</defs>
</svg>
