<svg width="70" height="70" viewBox="0 0 70 70" fill="none" xmlns="http://www.w3.org/2000/svg">
<rect width="70" height="70" rx="15" fill="#6052F0"/>
<path d="M45.7192 17H24.2798C21.766 17 19.6135 18.6643 19.4716 20.7174L17.9088 43.2524V49.2767C17.9088 51.3334 19.9457 53 22.4595 53H47.5404C50.0542 53 52.0911 51.3334 52.0911 49.2767V43.2524L50.5285 20.7174C50.3855 18.6643 48.233 17 45.7192 17ZM43.7506 43.9441L43.0325 45.4126C42.8451 45.7946 42.2871 46.1044 41.7838 46.1044H28.8898C28.3865 46.1044 27.7785 45.814 27.53 45.4572L26.4497 43.9001C26.2012 43.5434 26.4069 43.253 26.9102 43.253H43.179C43.6823 43.2524 43.9381 43.5621 43.7506 43.9441ZM46.0305 40.8605H24.3008C23.7975 40.8605 23.4188 40.5284 23.4543 40.1174L25.0325 21.777C25.0689 21.366 25.504 21.0339 26.0073 21.0339H44.5515C45.0548 21.0339 45.4862 21.3667 45.5162 21.777L46.885 40.1174C46.916 40.5276 46.5338 40.8605 46.0305 40.8605Z" fill="white"/>
<path d="M43.0015 35.9375H26.8756C26.244 35.9375 25.7315 36.3575 25.7315 36.8743C25.7315 37.3918 26.243 37.8111 26.8756 37.8111H43.0015C43.6304 37.8111 44.1437 37.3926 44.1437 36.8743C44.1438 36.3574 43.6304 35.9375 43.0015 35.9375Z" fill="white"/>
<path d="M43.0015 32.0117H26.8756C26.244 32.0117 25.7315 32.4318 25.7315 32.9485C25.7315 33.466 26.243 33.8853 26.8756 33.8853H43.0015C43.6304 33.8853 44.1437 33.4661 44.1437 32.9485C44.1438 32.4325 43.6304 32.0117 43.0015 32.0117Z" fill="white"/>
<path d="M43.0015 28.0865H26.8756C26.244 28.0865 25.7315 28.5073 25.7315 29.0234C25.7315 29.5409 26.243 29.9602 26.8756 29.9602H43.0015C43.6304 29.9602 44.1437 29.5417 44.1437 29.0234C44.1438 28.5066 43.6304 28.0865 43.0015 28.0865Z" fill="white"/>
<path d="M43.0015 24.1606H26.8756C26.244 24.1606 25.7315 24.5814 25.7315 25.0975C25.7315 25.615 26.243 26.0343 26.8756 26.0343H43.0015C43.6304 26.0343 44.1437 25.6158 44.1437 25.0975C44.1438 24.5814 43.6304 24.1606 43.0015 24.1606Z" fill="white"/>
</svg>
